<svg width="750" height="400" viewBox="0 0 750 400" xmlns="http://www.w3.org/2000/svg">
  <!-- 背景 -->
  <rect width="750" height="400" fill="#E8EAF6" />
  
  <!-- 装饰元素 -->
  <circle cx="650" cy="80" r="60" fill="#5C6BC0" opacity="0.2" />
  <circle cx="100" cy="320" r="80" fill="#9575CD" opacity="0.15" />
  
  <!-- 多杯奶茶展示 -->
  <!-- 奶茶1 -->
  <g transform="translate(200, 200)">
    <!-- 杯子 -->
    <path d="M-30,100 L-45,-40 L45,-40 L30,100 Z" fill="#D7CCC8" />
    <path d="M-45,-40 L-52,-65 L52,-65 L45,-40 Z" fill="#BCAAA4" />
    
    <!-- 奶茶 -->
    <path d="M-28,95 L-43,-35 L43,-35 L28,95 Z" fill="#8D6E63" />
    
    <!-- 吸管 -->
    <rect x="-3" y="-120" width="6" height="90" rx="3" fill="#4CAF50" />
  </g>
  
  <!-- 奶茶2 -->
  <g transform="translate(375, 200)">
    <!-- 杯子 -->
    <path d="M-30,100 L-45,-40 L45,-40 L30,100 Z" fill="#D7CCC8" />
    <path d="M-45,-40 L-52,-65 L52,-65 L45,-40 Z" fill="#BCAAA4" />
    
    <!-- 奶茶 -->
    <path d="M-28,95 L-43,-35 L43,-35 L28,95 Z" fill="#FFCC80" />
    
    <!-- 吸管 -->
    <rect x="-3" y="-120" width="6" height="90" rx="3" fill="#F44336" />
  </g>
  
  <!-- 奶茶3 -->
  <g transform="translate(550, 200)">
    <!-- 杯子 -->
    <path d="M-30,100 L-45,-40 L45,-40 L30,100 Z" fill="#D7CCC8" />
    <path d="M-45,-40 L-52,-65 L52,-65 L45,-40 Z" fill="#BCAAA4" />
    
    <!-- 奶茶 -->
    <path d="M-28,95 L-43,-35 L43,-35 L28,95 Z" fill="#CE93D8" />
    
    <!-- 吸管 -->
    <rect x="-3" y="-120" width="6" height="90" rx="3" fill="#FFC107" />
  </g>
  
  <!-- 文字内容 -->
  <g transform="translate(100, 150)">
    <text font-family="Arial, sans-serif" font-size="48" font-weight="bold" fill="#303F9F">
      新品上市
    </text>
    <text y="70" font-family="Arial, sans-serif" font-size="32" fill="#3949AB">
      多种口味任您选择
    </text>
    <text y="120" font-family="Arial, sans-serif" font-size="24" fill="#5C6BC0">
      尝鲜价 ¥15起
    </text>
  </g>
  
  <!-- 装饰气泡 -->
  <circle cx="150" cy="300" r="12" fill="#9FA8DA" opacity="0.6" />
  <circle cx="180" cy="330" r="8" fill="#9FA8DA" opacity="0.6" />
  <circle cx="130" cy="340" r="10" fill="#9FA8DA" opacity="0.6" />
  <circle cx="170" cy="280" r="15" fill="#9FA8DA" opacity="0.6" />
</svg>