<svg xmlns="http://www.w3.org/2000/svg" viewBox="0 0 24 24" width="24" height="24" fill="none" stroke="currentColor" stroke-width="2" stroke-linecap="round" stroke-linejoin="round">
  <path d="M7 2h10v3H7z"/>
  <path d="M17 5H7l-1 12a2 2 0 0 0 2 2h8a2 2 0 0 0 2-2l-1-12z"/>
  <path d="M10 10a1 1 0 1 0 0-2 1 1 0 0 0 0 2z"/>
  <path d="M14 12a1 1 0 1 0 0-2 1 1 0 0 0 0 2z"/>
  <path d="M12 14a1 1 0 1 0 0-2 1 1 0 0 0 0 2z"/>
  <path d="M10 16a1 1 0 1 0 0-2 1 1 0 0 0 0 2z"/>
  <path d="M14 18a1 1 0 1 0 0-2 1 1 0 0 0 0 2z"/>
  <path d="M10 5v2"/>
  <path d="M14 5v2"/>
</svg>