<svg xmlns="http://www.w3.org/2000/svg" viewBox="0 0 24 24" width="24" height="24" fill="none" stroke="currentColor" stroke-width="2" stroke-linecap="round" stroke-linejoin="round">
  <path d="M18 8a3 3 0 0 0-3-3H9a3 3 0 0 0-3 3v8a3 3 0 0 0 3 3h6a3 3 0 0 0 3-3V8z"/>
  <circle cx="12" cy="12" r="2"/>
  <circle cx="9" cy="9" r="1"/>
  <circle cx="15" cy="9" r="1"/>
  <circle cx="9" cy="15" r="1"/>
  <circle cx="15" cy="15" r="1"/>
  <path d="M6 2v4"/>
  <path d="M18 2v4"/>
  <path d="M10 2h4"/>
</svg>